# Blender v2.78 (sub 0) OBJ File: ''
# www.blender.org
mtllib Star_Collectable.mtl
o Cylinder.001_Cylinder.002
v 0.326962 3.381751 -0.038378
v 0.404988 3.323836 0.039472
v 0.373183 3.354683 0.155833
v 0.275500 3.431662 0.149898
v 0.246934 3.448391 0.029868
v 0.474283 3.563496 -0.105806
v 0.595392 3.473603 0.015031
v 0.546025 3.521481 0.195643
v 0.394405 3.640965 0.186430
v 0.350066 3.666931 0.000124
v 0.548332 3.652674 -0.167894
v 0.723854 3.549181 -0.005576
v 0.652614 3.607004 0.238738
v 0.433062 3.746234 0.227415
v 0.368612 3.774459 -0.023897
v 0.496863 3.401408 0.028418
v 0.457609 3.439479 0.172033
v 0.337046 3.534488 0.164707
v 0.301790 3.555136 0.016565
v 0.400562 3.472888 -0.067666
v 0.621795 3.744407 -0.187195
v 0.587229 3.697887 -0.221657
v 0.816790 3.645703 -0.014649
v 0.814307 3.580503 -0.023156
v 0.737831 3.702917 0.246175
v 0.721777 3.648335 0.280649
v 0.494037 3.836980 0.234829
v 0.441425 3.805160 0.263805
v 0.422323 3.862622 -0.033009
v 0.360999 3.834475 -0.042261
vn -0.9618 -0.0527 -0.2686
vn -0.8195 0.4563 -0.3467
vn -0.0189 -0.0968 -0.9951
vn -0.2934 -0.5271 -0.7975
vn 0.0865 -0.7038 0.7051
vn 0.4496 -0.3085 0.8383
vn -0.5328 0.3274 0.7803
vn -0.7202 -0.1675 0.6732
vn 0.3433 -0.9194 -0.1919
vn 0.7730 -0.5754 -0.2671
vn 0.9083 0.3701 -0.1948
vn 0.4296 0.6460 -0.6309
vn -0.0544 0.9688 -0.2418
vn 0.1178 0.8952 0.4298
vn 0.7142 0.5246 0.4634
vn -0.4067 -0.5711 -0.7131
vn 0.1386 -0.9758 -0.1690
vn -0.0837 -0.7602 0.6442
vn -0.7664 -0.2222 0.6027
vn -0.9660 -0.1053 -0.2361
vn -0.8703 0.3620 -0.3338
vn -0.9257 0.2125 -0.3130
vn -0.2046 -0.3529 -0.9130
vn -0.1374 -0.2483 -0.9589
vn -0.6087 0.2088 0.7654
vn -0.6683 0.0732 0.7403
vn 0.2859 -0.4962 0.8198
vn 0.2118 -0.5770 0.7888
vn 0.5772 -0.7787 -0.2459
vn 0.4959 -0.8375 -0.2295
usemtl None
s 1
f 15//1 30//2 22//3 11//4
f 13//5 26//6 28//7 14//8
f 14//8 28//7 30//2 15//1
f 12//9 24//10 26//6 13//5
f 23//11 21//12 29//13 27//14 25//15
f 1//16 2//17 3//18 4//19 5//20
f 19//21 10//22 6//23 20//24
f 18//25 9//26 10//22 19//21
f 17//27 8//28 9//26 18//25
f 16//29 7//30 8//28 17//27
f 20//24 6//23 7//30 16//29
f 10//22 15//1 11//4 6//23
f 9//26 14//8 15//1 10//22
f 8//28 13//5 14//8 9//26
f 7//30 12//9 13//5 8//28
f 6//23 11//4 12//9 7//30
f 1//16 20//24 16//29 2//17
f 2//17 16//29 17//27 3//18
f 3//18 17//27 18//25 4//19
f 4//19 18//25 19//21 5//20
f 5//20 19//21 20//24 1//16
f 24//10 22//3 21//12 23//11
f 26//6 24//10 23//11 25//15
f 28//7 26//6 25//15 27//14
f 30//2 28//7 27//14 29//13
f 22//3 30//2 29//13 21//12
f 11//4 22//3 24//10 12//9
o Plane
v -0.011862 3.812478 -0.090607
v -0.509356 4.042837 -0.064270
v -0.072356 3.628665 0.380449
v -0.570359 3.859051 0.406731
v -0.834028 3.941317 0.012790
v -0.861352 3.858100 0.224504
v 0.303021 3.571051 -0.031811
v 0.272021 3.476641 0.208379
v -0.016074 3.805094 -0.094034
v -0.510774 4.034465 -0.067723
v -0.076548 3.621269 0.377020
v -0.571731 3.850671 0.403281
v -0.832104 3.932889 0.009742
v -0.859429 3.849672 0.221456
v 0.298233 3.564000 -0.035186
v 0.267233 3.469590 0.205005
v -0.042109 3.720572 0.144921
v -0.539858 3.950944 0.171231
v -0.949695 3.901628 0.087494
v 0.353729 3.488475 0.082926
v -0.046311 3.713181 0.141493
v -0.541253 3.942568 0.167779
v -0.947772 3.893199 0.084447
v 0.348941 3.481424 0.079552
vn 0.4629 0.8037 0.3739
vn 0.1086 0.9213 0.3734
vn -0.1057 0.4209 0.9009
vn 0.3382 0.2269 0.9133
vn 0.0505 0.9206 -0.3871
vn -0.4563 0.7804 -0.4274
vn -0.8903 0.4552 0.0006
vn 0.6804 0.0120 0.7327
vn 0.9864 0.0641 0.1509
vn -0.4631 -0.8035 -0.3739
vn -0.2687 -0.8623 0.4292
vn -0.3457 -0.8026 0.4861
vn -0.1081 -0.9214 -0.3734
vn -0.6768 -0.6182 -0.3996
vn -0.1995 -0.4675 -0.8612
vn -0.1775 -0.2354 -0.9555
vn 0.3622 -0.8830 -0.2987
vn 0.0163 -0.9672 0.2533
vn 0.4835 0.7718 -0.4129
vn -0.1309 -0.3172 -0.9393
vn -0.6447 0.3139 0.6970
vn -0.3881 -0.8888 0.2438
vn 0.7991 0.4581 -0.3893
vn 0.1417 -0.5167 -0.8443
usemtl None
s 1
f 47//31 48//32 34//33 33//34
f 48//32 32//35 35//36 49//37
f 47//31 33//34 38//38 50//39
f 51//40 41//41 42//42 52//43
f 52//43 53//44 43//45 40//46
f 51//40 54//47 46//48 41//41
f 32//35 31//49 39//50 40//46
f 33//34 34//33 42//42 41//41
f 49//37 35//36 43//45 53//44
f 34//33 36//51 44//52 42//42
f 35//36 32//35 40//46 43//45
f 50//39 38//38 46//48 54//47
f 31//49 37//53 45//54 39//50
f 38//38 33//34 41//41 46//48
f 37//53 50//39 54//47 45//54
f 36//51 49//37 53//44 44//52
f 39//50 45//54 54//47 51//40
f 42//42 44//52 53//44 52//43
f 39//50 51//40 52//43 40//46
f 31//49 47//31 50//39 37//53
f 34//33 48//32 49//37 36//51
f 31//49 32//35 48//32 47//31
o Cylinder_Cylinder.001
v -0.167148 1.040142 0.306981
v -0.144728 1.164252 0.662184
v -0.159391 1.083083 0.435180
v -0.149544 1.137594 0.561112
v 0.661539 1.553321 0.662184
v 0.772647 1.493646 0.306981
v 0.737474 1.537828 0.558610
v 0.781439 1.514197 0.452100
v 0.540663 2.440356 0.662184
v 0.631752 2.527585 0.306981
v 0.568641 2.467149 0.516390
v 0.602614 2.499681 0.421140
v -0.340310 2.599504 0.662184
v -0.395121 2.713090 0.306981
v -0.356259 2.632556 0.524270
v -0.377468 2.676506 0.422991
v -0.763904 1.810829 0.662184
v -0.888869 1.793800 0.306981
v -0.839832 1.821985 0.522491
v -0.834629 1.806547 0.421791
v -0.144728 1.164252 -0.420788
v -0.167148 1.040142 -0.053039
v -0.150988 1.129599 -0.281180
v -0.160537 1.076737 -0.164406
v 0.772647 1.493646 -0.053039
v 0.661539 1.553321 -0.420788
v 0.734089 1.514355 -0.180556
v 0.690284 1.537882 -0.291559
v 0.631752 2.527585 -0.053039
v 0.540663 2.440356 -0.420788
v 0.593823 2.491263 -0.200849
v 0.563710 2.462426 -0.294443
v -0.395121 2.713090 -0.053039
v -0.340310 2.599504 -0.420788
v -0.374382 2.670113 -0.191217
v -0.353420 2.626673 -0.301429
v -0.888869 1.793800 -0.053039
v -0.763904 1.810829 -0.420788
v -0.855836 1.798301 -0.154332
v -0.802398 1.805583 -0.266552
v 0.664369 0.739841 0.443093
v 0.490324 0.655854 0.443093
v 0.776074 0.508354 0.239857
v 0.602029 0.424368 0.239857
v 0.546176 0.540111 0.371764
v 0.720222 0.624097 0.371764
v 0.587063 0.455381 0.300759
v 0.761108 0.539368 0.300759
v -1.103157 0.732411 0.239857
v -1.236816 0.871985 0.239857
v -0.917519 0.910182 0.443093
v -1.051179 1.049755 0.443093
v -1.211945 0.895801 0.300759
v -1.078286 0.756228 0.300759
v -1.143997 0.960870 0.371764
v -1.010338 0.821296 0.371764
v 1.569878 2.226372 0.239857
v 1.595971 2.034892 0.239857
v 1.315203 2.191668 0.443093
v 1.341296 2.000187 0.443093
v 1.561851 2.030242 0.300759
v 1.535758 2.221723 0.300759
v 1.468634 2.017539 0.371764
v 1.442541 2.209020 0.371764
v 0.181246 3.512222 0.239857
v 0.371418 3.477867 0.239857
v 0.135553 3.259287 0.443093
v 0.325725 3.224933 0.443093
v 0.365296 3.443980 0.300759
v 0.175124 3.478335 0.300759
v 0.348571 3.351400 0.371764
v 0.158400 3.385755 0.371764
v -1.470781 2.588903 0.239857
v -1.379341 2.759151 0.239857
v -1.244346 2.467285 0.443093
v -1.152906 2.637533 0.443093
v -1.349005 2.742857 0.300759
v -1.440444 2.572609 0.300759
v -1.266124 2.698342 0.371764
v -1.357563 2.528094 0.371764
v 0.602029 0.424368 -0.077542
v 0.776074 0.508354 -0.077542
v 0.490324 0.655854 -0.258324
v 0.664369 0.739840 -0.258324
v 0.587063 0.455381 -0.135940
v 0.761108 0.539367 -0.135940
v 0.546176 0.540111 -0.178709
v 0.720221 0.624097 -0.178709
v 1.341297 2.000187 -0.258324
v 1.315203 2.191668 -0.258324
v 1.595971 2.034892 -0.077542
v 1.569878 2.226372 -0.077542
v 1.468634 2.017540 -0.204238
v 1.442541 2.209020 -0.204238
v 1.561851 2.030242 -0.135940
v 1.535758 2.221723 -0.135940
v -1.051179 1.049755 -0.258324
v -0.917519 0.910182 -0.258324
v -1.236816 0.871985 -0.077542
v -1.103157 0.732411 -0.077542
v -1.143997 0.960870 -0.204238
v -1.010338 0.821296 -0.204238
v -1.211945 0.895801 -0.135940
v -1.078286 0.756228 -0.135940
v 0.325725 3.224932 -0.258324
v 0.135553 3.259287 -0.258324
v 0.371418 3.477867 -0.077542
v 0.181246 3.512222 -0.077542
v 0.348571 3.351400 -0.204238
v 0.158400 3.385755 -0.204238
v 0.365296 3.443980 -0.135940
v 0.175124 3.478335 -0.135940
v -1.152906 2.637533 -0.258324
v -1.244346 2.467285 -0.258324
v -1.379341 2.759151 -0.077542
v -1.470781 2.588903 -0.077542
v -1.266124 2.698342 -0.204238
v -1.357563 2.528094 -0.204238
v -1.349005 2.742857 -0.135940
v -1.440444 2.572609 -0.135940
vn -0.1174 -0.8172 0.5643
vn -0.1501 -0.6813 0.7164
vn -0.1549 -0.8573 0.4910
vn -0.1623 -0.8984 0.4080
vn -0.0763 -0.4223 0.9033
vn 0.3172 -0.1630 0.9342
vn 0.3204 0.3068 0.8962
vn -0.1919 0.3976 0.8972
vn -0.3889 -0.0468 0.9201
vn -0.1751 -0.9697 0.1704
vn -0.1759 -0.8066 0.5643
vn -0.2707 -0.9375 0.2186
vn 0.6872 -0.3979 0.6078
vn 0.5997 -0.3179 0.7344
vn 0.4758 -0.2227 0.8509
vn 0.5166 0.4581 0.7234
vn 0.4547 0.3900 0.8007
vn 0.6368 0.6098 0.4718
vn -0.2765 0.6344 0.7218
vn -0.2313 0.5499 0.8026
vn -0.3827 0.7931 0.4737
vn -0.0791 -0.4261 -0.9012
vn -0.1544 -0.8679 -0.4721
vn -0.0548 -0.6704 -0.7400
vn -0.0224 -0.5545 -0.8319
vn 0.3048 0.2918 -0.9066
vn 0.6322 0.6054 -0.4836
vn 0.4389 0.5070 -0.7418
vn 0.3431 0.4288 -0.8357
vn -0.1897 -0.6301 -0.7530
vn -0.1432 -0.7665 -0.6260
vn -0.1537 -0.8937 -0.4215
vn -0.1822 0.3775 -0.9079
vn -0.3800 0.7875 -0.4852
vn -0.3485 0.5760 -0.7394
vn -0.2983 0.4571 -0.8379
vn -0.4270 -0.0582 -0.9023
vn -0.8757 -0.1193 -0.4678
vn -0.6523 -0.1550 -0.7419
vn -0.5387 -0.1545 -0.8282
vn 0.6520 0.6244 0.4301
vn 0.4800 0.4963 0.7234
vn 0.6143 0.5456 0.5700
vn -0.4280 0.8870 0.1731
vn -0.3933 0.8151 0.4253
vn -0.3297 0.7536 0.5687
vn -0.3319 0.9174 0.2195
vn 0.7112 0.6811 0.1741
vn 0.7700 0.5990 0.2198
vn -0.3246 0.6112 0.7218
vn -0.0977 -0.6908 0.7164
vn 0.3803 -0.2014 -0.9026
vn -0.8767 -0.1600 0.4536
vn -0.7593 -0.0519 0.6486
vn -0.5366 -0.0867 0.8394
vn -0.9459 -0.1082 0.3058
vn -0.7282 -0.1501 0.6687
vn -0.8137 -0.0820 0.5755
vn -0.9681 -0.1250 0.2172
vn -0.9712 -0.0288 0.2363
vn -0.1755 -0.9716 -0.1582
vn -0.0781 -0.9706 -0.2277
vn -0.0744 -0.9730 0.2186
vn 0.8191 -0.5488 0.1671
vn 0.8081 -0.5427 -0.2291
vn 0.8693 -0.4669 -0.1620
vn 0.8909 -0.4519 0.0464
vn 0.5866 -0.3321 0.7386
vn 0.7554 -0.4392 0.4863
vn 0.8141 -0.4665 0.3458
vn -0.1210 -0.5685 0.8137
vn 0.4263 -0.2778 0.8609
vn 0.9068 -0.3773 0.1879
vn 0.7665 -0.3791 0.5184
vn 0.4093 0.4374 0.8007
vn -0.9449 -0.2314 0.2313
vn -0.8172 -0.1375 0.5597
vn -0.0855 -0.5750 0.8137
vn -0.2664 -0.9366 -0.2277
vn 0.6318 0.7433 0.2198
vn 0.5717 0.5902 0.5700
vn -0.2865 0.5232 0.8026
vn -0.3347 0.9139 -0.2296
vn -0.4288 0.8885 -0.1632
vn 0.8986 -0.3740 -0.2291
vn 0.7121 0.6819 -0.1670
vn 0.6330 0.7389 -0.2310
vn -0.9732 -0.0361 -0.2270
vn -0.9787 -0.1333 -0.1563
vn -0.5117 0.8307 0.2195
vn -0.3848 0.7270 0.5687
vn -0.5560 -0.0773 0.8275
vn 0.7656 0.6004 -0.2310
vn -0.9474 -0.2256 -0.2270
vn -0.5072 0.8307 -0.2296
vn 0.5439 -0.2336 -0.8059
vn -0.1582 -0.5735 -0.8037
vn 0.6882 -0.3645 -0.6273
vn 0.6100 -0.2451 -0.7535
vn 0.7730 -0.4176 -0.4776
vn 0.7937 -0.4356 -0.4245
vn 0.4460 -0.3228 -0.8348
vn 0.5596 -0.3735 -0.7398
vn 0.7253 -0.3755 -0.5770
vn 0.6574 0.6296 -0.4140
vn 0.5972 0.5542 -0.5798
vn -0.5604 0.0048 -0.8282
vn -0.6700 -0.0251 -0.7419
vn -0.9051 -0.1233 -0.4070
vn -0.8080 -0.1225 -0.5762
vn -0.1573 -0.8023 -0.5758
vn 0.4433 0.3243 -0.8357
vn 0.5256 0.4166 -0.7418
vn 0.5795 0.5726 -0.5798
vn -0.3974 0.8236 -0.4046
vn -0.3438 0.7409 -0.5770
vn -0.1722 0.5179 -0.8379
vn -0.2341 0.6312 -0.7394
vn -0.3661 0.7301 -0.5770
vn -0.8114 -0.0981 -0.5762
usemtl None
s 1
f 101//55 99//56 58//57 57//58
f 56//59 59//60 63//61 67//62 71//63
f 55//64 57//58 108//65 103//66
f 59//60 61//67 117//68 114//69
f 125//70 122//71 63//61 65//72
f 133//73 130//74 67//62 69//75
f 75//76 77//77 156//78 152//79
f 84//80 86//81 148//82 144//83
f 141//84 139//85 78//86 77//77
f 88//87 90//88 164//89 160//90
f 92//91 94//92 172//93 168//94
f 66//95 65//72 118//96 116//97
f 68//98 70//99 124//100 119//101
f 64//102 66//95 116//97 111//103
f 70//99 69//75 126//104 124//100
f 57//58 58//57 110//105 108//65
f 75//76 92//91 88//87 84//80 80//106
f 71//63 73//107 109//108 106//109
f 74//110 73//107 134//111 132//112
f 72//113 74//110 132//112 127//114
f 55//64 76//115 135//116 98//117
f 97//118 136//119 79//120 60//121
f 100//122 102//123 62//124 61//67
f 59//60 56//59 96//125 95//126
f 62//124 60//121 112//127 115//128
f 61//67 62//124 115//128 117//68
f 63//61 59//60 114//69 113//129
f 74//110 72//113 104//130 107//131
f 73//107 74//110 107//131 109//108
f 56//59 71//63 106//109 105//132
f 102//123 97//118 60//121 62//124
f 103//66 154//133 76//115 55//64
f 98//117 101//55 57//58 55//64
f 120//134 123//135 66//95 64//102
f 123//135 125//70 65//72 66//95
f 67//62 63//61 122//71 121//136
f 65//72 63//61 113//129 118//96
f 119//101 162//137 87//138 68//98
f 60//121 79//120 145//139 112//127
f 64//102 83//140 161//141 120//134
f 127//114 170//142 91//143 72//113
f 69//75 67//62 121//136 126//104
f 128//144 131//145 70//99 68//98
f 131//145 133//73 69//75 70//99
f 71//63 67//62 130//74 129//146
f 58//57 56//59 105//132 110//105
f 111//103 146//147 83//140 64//102
f 72//113 91//143 153//148 104//130
f 68//98 87//138 169//149 128//144
f 139//85 135//116 76//115 78//86
f 73//107 71//63 129//146 134//111
f 80//106 138//150 137//151 75//76
f 140//152 142//153 82//154 81//155
f 136//119 140//152 81//155 79//120
f 82//154 80//106 143//156 147//157
f 81//155 82//154 147//157 149//158
f 86//81 85//159 150//160 148//82
f 94//92 92//91 151//161 155//162
f 93//163 94//92 155//162 157//164
f 77//77 78//86 158//165 156//78
f 142//153 138//150 80//106 82//154
f 84//80 144//83 143//156 80//106
f 137//151 141//84 77//77 75//76
f 159//166 163//167 86//81 84//80
f 163//167 165//168 85//159 86//81
f 90//88 89//169 166//170 164//89
f 85//159 83//140 146//147 150//160
f 75//76 152//79 151//161 92//91
f 79//120 81//155 149//158 145//139
f 165//168 161//141 83//140 85//159
f 92//91 168//94 167//171 88//87
f 89//169 87//138 162//137 166//170
f 167//171 171//172 90//88 88//87
f 171//172 173//173 89//169 90//88
f 94//92 93//163 174//174 172//93
f 78//86 76//115 154//133 158//165
f 88//87 160//90 159//166 84//80
f 91//143 93//163 157//164 153//148
f 173//173 169//149 87//138 89//169
f 93//163 91//143 170//142 174//174
f 95//126 100//122 61//67 59//60
f 102//123 101//55 98//117 97//118
f 100//122 99//56 101//55 102//123
f 95//126 96//125 99//56 100//122
f 112//127 111//103 116//97 115//128
f 115//128 116//97 118//96 117//68
f 117//68 118//96 113//129 114//69
f 104//130 103//66 108//65 107//131
f 107//131 108//65 110//105 109//108
f 109//108 110//105 105//132 106//109
f 120//134 119//101 124//100 123//135
f 123//135 124//100 126//104 125//70
f 125//70 126//104 121//136 122//71
f 128//144 127//114 132//112 131//145
f 131//145 132//112 134//111 133//73
f 133//73 134//111 129//146 130//74
f 142//153 141//84 137//151 138//150
f 140//152 139//85 141//84 142//153
f 136//119 135//116 139//85 140//152
f 143//156 144//83 148//82 147//157
f 147//157 148//82 150//160 149//158
f 149//158 150//160 146//147 145//139
f 151//161 152//79 156//78 155//162
f 155//162 156//78 158//165 157//164
f 157//164 158//165 154//133 153//148
f 159//166 160//90 164//89 163//167
f 163//167 164//89 166//170 165//168
f 165//168 166//170 162//137 161//141
f 167//171 168//94 172//93 171//172
f 171//172 172//93 174//174 173//173
f 173//173 174//174 170//142 169//149
f 97//118 98//117 135//116 136//119
f 153//148 154//133 103//66 104//130
f 111//103 112//127 145//139 146//147
f 119//101 120//134 161//141 162//137
f 127//114 128//144 169//149 170//142
f 99//56 96//125 56//59 58//57
